<svg width="122" height="32" viewBox="0 0 122 32" fill="none" xmlns="http://www.w3.org/2000/svg">
<g id="TeleVox Logo" clip-path="url(#clip0_3678_11082)">
<g id="Vector">
<path d="M31.3884 0H44.6387V3.89716H40.157V27.2801H35.8701V3.89716H31.3884V0Z" fill="#00B2E3"/>
<path d="M49.8187 14.1326H54.7226V17.3802H49.8187V24.0379H55.9892V27.2855H46.2463V4.5521H55.9892V7.79973H49.8187V14.1326Z" fill="#00B2E3"/>
<path d="M58.1976 4.5521H61.77V24.0325H67.6482V27.2801H58.1976V4.5521Z" fill="#00B2E3"/>
<path d="M72.7794 14.1326H77.6834V17.3802H72.7794V24.0379H78.9499V27.2855H69.207V4.5521H78.9499V7.79973H72.7794V14.1326Z" fill="#00B2E3"/>
<path d="M87.8485 22.2571H87.9242L91.161 0H95.0961L90.885 27.2801H84.4926L80.2869 0H84.6116L87.8485 22.2571Z" fill="#00B2E3"/>
<path d="M96.5305 10.0081C96.5305 6.37077 98.4466 4.29229 101.954 4.29229C105.461 4.29229 107.378 6.37077 107.378 10.0081V21.8295C107.378 25.4668 105.461 27.5453 101.954 27.5453C98.4466 27.5453 96.5305 25.4668 96.5305 21.8295V10.0081ZM100.103 22.0568C100.103 23.6806 100.817 24.2977 101.954 24.2977C103.091 24.2977 103.805 23.6806 103.805 22.0568V9.78078C103.805 8.15697 103.091 7.53992 101.954 7.53992C100.817 7.53992 100.103 8.15697 100.103 9.78078V22.0568Z" fill="#00B2E3"/>
<path d="M121.115 4.5521L117.38 15.594L121.375 27.2855H117.608L114.717 18.2896H114.652L111.729 27.2855H108.384L112.379 15.594L108.644 4.5521H112.346L115.009 12.931H115.074L117.802 4.5521H121.115Z" fill="#00B2E3"/>
<path d="M10.6035 7.6157L16.3843 4.51421H0V32L9.17456 27.3613L5.78079 24.1786H3.24763V7.54533L10.6035 7.6157Z" fill="#00B2E3"/>
<path d="M7.44249 24.1786L10.7821 27.2801H27.7564V0L13.023 7.6157H24.5088V24.249L7.44249 24.1786Z" fill="#8FC852"/>
</g>
</g>
<defs>
<clipPath id="clip0_3678_11082">
<rect width="121.375" height="32" fill="white"/>
</clipPath>
</defs>
</svg>
